ply
format ascii 1.0
comment Created by Blender 2.78 (sub 0) - www.blender.org, source file: ''
element vertex 258
property float x
property float y
property float z
property float nx
property float ny
property float nz
property uchar red
property uchar green
property uchar blue
element face 140
property list uchar uint vertex_indices
end_header
8.334831 -2.794850 0.354851 1.000000 0.000000 -0.000000 110 110 101
8.334831 -7.934043 0.335777 1.000000 0.000000 -0.000000 110 110 101
8.334831 -2.793970 0.118264 1.000000 0.000000 -0.000000 110 110 101
8.334831 -7.932580 -0.058534 1.000000 -0.000000 -0.000000 110 110 101
8.334831 -2.557382 0.119138 1.000000 0.000000 -0.000000 110 110 101
8.334831 7.838588 0.394317 1.000000 0.000000 -0.000000 110 110 101
8.334831 2.699390 0.375243 1.000000 0.000000 -0.000000 110 110 101
8.334831 7.840051 0.000000 1.000000 0.000000 -0.000000 110 110 101
8.334831 2.700270 0.138655 1.000000 -0.000000 -0.000000 110 110 101
8.334831 2.463681 0.137775 1.000000 -0.000000 0.000000 110 110 101
8.334831 2.462801 0.374363 1.000000 0.000000 -0.000000 110 110 101
8.334831 -2.558257 0.355732 1.000000 0.000000 -0.000000 110 110 101
3.195599 7.838588 0.394317 0.000000 0.999993 0.003722 110 110 101
8.334831 7.838588 0.394317 0.000000 0.999993 0.003722 110 110 101
3.195599 7.839468 0.157724 0.000000 0.999993 0.003722 110 110 101
3.195599 7.839468 0.157724 0.000001 0.999993 0.003711 110 110 101
8.334831 7.838588 0.394317 0.000001 0.999993 0.003711 110 110 101
8.334831 7.840051 0.000000 0.000001 0.999993 0.003711 110 110 101
3.195599 7.839468 0.157724 0.000000 0.999993 0.003694 110 110 101
8.334831 7.840051 0.000000 0.000000 0.999993 0.003694 110 110 101
2.959011 7.839468 0.157724 0.000000 0.999993 0.003694 110 110 101
-7.437907 7.838588 0.394317 0.000000 0.999993 0.003711 110 110 101
-2.298675 7.838588 0.394317 0.000000 0.999993 0.003711 110 110 101
-7.437907 7.840051 0.000000 0.000000 0.999993 0.003711 110 110 101
-7.437907 7.840051 0.000000 -0.000001 0.999993 0.003722 110 110 101
-2.298675 7.838588 0.394317 -0.000001 0.999993 0.003722 110 110 101
-2.298675 7.839468 0.157724 -0.000001 0.999993 0.003722 110 110 101
-7.437907 7.840051 0.000000 0.000000 0.999993 0.003694 240 240 239
-2.298675 7.839468 0.157724 0.000000 0.999993 0.003694 110 110 101
-2.062086 7.839468 0.157724 0.000000 0.999993 0.003694 110 110 101
-2.062086 7.838588 0.394317 0.000000 0.999993 0.003722 110 110 101
2.959011 7.838588 0.394317 0.000000 0.999993 0.003722 110 110 101
-2.062086 7.839468 0.157724 0.000000 0.999993 0.003722 110 110 101
2.959011 7.839468 0.157724 0.000000 0.999993 0.003722 110 110 101
-7.437907 7.840051 0.000000 0.000000 0.999993 0.003694 110 110 101
-7.437907 -2.558257 0.355732 -1.000000 -0.000000 0.000000 110 110 101
-7.437907 2.462801 0.374363 -1.000000 -0.000000 0.000000 110 110 101
-7.437907 -2.557382 0.119138 -1.000000 -0.000000 0.000000 110 110 101
-7.437907 2.463681 0.137775 -1.000000 -0.000000 0.000000 110 110 101
-7.437907 -7.934043 0.335777 -1.000000 -0.000000 0.000000 110 110 101
-7.437907 -2.794850 0.354851 -1.000000 -0.000000 0.000000 110 110 101
-7.437907 -7.932580 -0.058534 -1.000000 -0.000000 0.000000 110 110 101
-7.437907 -2.793970 0.118264 -1.000000 -0.000000 0.000000 110 110 101
-7.437907 2.699390 0.375243 -1.000000 -0.000000 0.000000 110 110 101
-7.437907 7.838588 0.394317 -1.000000 -0.000000 0.000000 110 110 101
-7.437907 2.700270 0.138655 -1.000000 -0.000000 0.000000 110 110 101
-7.437907 7.840051 0.000000 -1.000000 -0.000000 0.000000 110 110 101
-7.437907 7.840051 0.000000 -1.000000 0.000000 0.000000 142 142 135
-7.437907 -7.932580 -0.058534 -1.000000 0.000000 -0.000000 255 255 255
-2.298675 7.838588 0.394317 0.000000 -0.003711 0.999993 110 110 101
-7.437907 7.838588 0.394317 0.000000 -0.003711 0.999993 110 110 101
-2.298675 2.699390 0.375243 0.000000 -0.003711 0.999993 110 110 101
-7.437907 2.699390 0.375243 0.000000 -0.003711 0.999993 110 110 101
-2.298675 -2.558257 0.355732 0.000000 -0.003711 0.999993 110 110 101
-2.298675 2.462801 0.374363 0.000000 -0.003711 0.999993 110 110 101
-7.437907 -2.558257 0.355732 0.000000 -0.003711 0.999993 110 110 101
-7.437907 2.462801 0.374363 0.000000 -0.003711 0.999993 110 110 101
-2.062086 2.699390 0.375243 0.000000 -0.003711 0.999993 110 110 101
2.959011 2.699390 0.375243 0.000000 -0.003711 0.999993 110 110 101
-2.062086 7.838588 0.394317 0.000000 -0.003711 0.999993 110 110 101
2.959011 7.838588 0.394317 0.000000 -0.003711 0.999993 110 110 101
3.195599 -2.558257 0.355732 0.000000 -0.003711 0.999993 110 110 101
8.334831 -2.558257 0.355732 0.000000 -0.003711 0.999993 110 110 101
3.195599 2.462801 0.374363 0.000000 -0.003711 0.999993 110 110 101
8.334831 2.462801 0.374363 0.000000 -0.003711 0.999993 110 110 101
3.195599 -7.934043 0.335777 0.000000 -0.003711 0.999993 110 110 101
8.334831 -7.934043 0.335777 0.000000 -0.003711 0.999993 110 110 101
3.195599 -2.794850 0.354851 0.000000 -0.003711 0.999993 110 110 101
8.334831 -2.794850 0.354851 0.000000 -0.003711 0.999993 110 110 101
-2.062086 -2.794850 0.354851 0.000000 -0.003711 0.999993 110 110 101
-2.062086 -7.934043 0.335777 0.000000 -0.003711 0.999993 110 110 101
2.959011 -2.794850 0.354851 0.000000 -0.003711 0.999993 110 110 101
2.959011 -7.934043 0.335777 0.000000 -0.003711 0.999993 110 110 101
-7.437907 -2.794850 0.354851 0.000000 -0.003711 0.999993 110 110 101
-7.437907 -7.934043 0.335777 0.000000 -0.003711 0.999993 110 110 101
-2.298675 -2.794850 0.354851 0.000000 -0.003711 0.999993 110 110 101
-2.298675 -7.934043 0.335777 0.000000 -0.003711 0.999993 110 110 101
-2.298675 -7.934043 0.335777 0.000000 -0.999993 -0.003698 110 110 101
-7.437907 -7.934043 0.335777 0.000000 -0.999993 -0.003698 110 110 101
-2.298675 -7.933168 0.099189 0.000000 -0.999993 -0.003698 110 110 101
-2.298675 -7.933168 0.099189 -0.000001 -0.999993 -0.003711 110 110 101
-7.437907 -7.934043 0.335777 -0.000001 -0.999993 -0.003711 110 110 101
-7.437907 -7.932580 -0.058534 -0.000001 -0.999993 -0.003711 110 110 101
-2.298675 -7.933168 0.099189 0.000000 -0.999993 -0.003731 110 110 101
-7.437907 -7.932580 -0.058534 0.000000 -0.999993 -0.003731 255 255 255
-2.062086 -7.933168 0.099189 0.000000 -0.999993 -0.003731 110 110 101
8.334831 -7.934043 0.335777 0.000000 -0.999993 -0.003711 110 110 101
3.195599 -7.934043 0.335777 0.000000 -0.999993 -0.003711 110 110 101
8.334831 -7.932580 -0.058534 0.000000 -0.999993 -0.003711 115 115 106
8.334831 -7.932580 -0.058534 0.000001 -0.999993 -0.003698 115 115 106
3.195599 -7.934043 0.335777 0.000001 -0.999993 -0.003698 110 110 101
3.195599 -7.933168 0.099189 0.000001 -0.999993 -0.003698 110 110 101
8.334831 -7.932580 -0.058534 0.000000 -0.999993 -0.003731 122 122 113
3.195599 -7.933168 0.099189 0.000000 -0.999993 -0.003731 110 110 101
2.959011 -7.933168 0.099189 0.000000 -0.999993 -0.003731 110 110 101
2.959011 -7.934043 0.335777 0.000000 -0.999993 -0.003698 110 110 101
-2.062086 -7.934043 0.335777 0.000000 -0.999993 -0.003698 110 110 101
2.959011 -7.933168 0.099189 0.000000 -0.999993 -0.003698 110 110 101
-2.062086 -7.933168 0.099189 0.000000 -0.999993 -0.003698 110 110 101
8.334831 -7.932580 -0.058534 0.000000 -0.999993 -0.003731 115 115 106
-7.437907 -7.932580 -0.058534 0.000000 -0.999993 -0.003731 110 110 101
3.195599 2.699390 0.375243 0.000000 -0.003711 0.999993 110 110 101
8.334831 2.699390 0.375243 0.000000 -0.003711 0.999993 110 110 101
3.195599 7.838588 0.394317 0.000000 -0.003711 0.999993 110 110 101
8.334831 7.838588 0.394317 0.000000 -0.003711 0.999993 110 110 101
-7.437907 -7.932580 -0.058534 0.000000 0.003711 -0.999993 112 112 103
-7.437907 7.840051 0.000000 0.000000 0.003711 -0.999993 110 110 101
8.334831 -7.932580 -0.058534 0.000000 0.003711 -0.999993 110 110 101
8.334831 7.840051 0.000000 0.000000 0.003711 -0.999993 110 110 101
-7.437907 -2.557382 0.119138 -0.000000 -0.999993 -0.003700 110 110 101
-2.298675 -2.557382 0.119138 -0.000000 -0.999993 -0.003700 110 110 101
-7.437907 -2.558257 0.355732 -0.000000 -0.999993 -0.003700 110 110 101
-2.298675 -2.558257 0.355732 0.000000 -0.999993 -0.003700 110 110 101
-2.298675 -2.557382 0.119138 1.000000 0.000000 0.000000 110 110 101
-2.298675 2.463681 0.137775 1.000000 0.000000 0.000000 110 110 101
-2.298675 -2.558257 0.355732 1.000000 0.000000 0.000000 110 110 101
-2.298675 2.462801 0.374363 1.000000 0.000000 0.000000 110 110 101
-2.298675 2.463681 0.137775 -0.000000 0.999993 0.003722 110 110 101
-7.437907 2.463681 0.137775 -0.000000 0.999993 0.003722 110 110 101
-2.298675 2.462801 0.374363 -0.000000 0.999993 0.003722 110 110 101
-7.437907 2.462801 0.374363 0.000000 0.999993 0.003722 110 110 101
-7.437907 2.700270 0.138655 -0.000000 -0.999993 -0.003722 110 110 101
-2.298675 2.700270 0.138655 -0.000000 -0.999993 -0.003722 110 110 101
-7.437907 2.699390 0.375243 -0.000000 -0.999993 -0.003722 110 110 101
-2.298675 2.699390 0.375243 0.000000 -0.999993 -0.003722 110 110 101
-2.298675 2.700270 0.138655 1.000000 0.000000 0.000000 110 110 101
-2.298675 7.839468 0.157724 1.000000 0.000000 0.000000 110 110 101
-2.298675 2.699390 0.375243 1.000000 0.000000 0.000000 110 110 101
-2.298675 7.838588 0.394317 1.000000 0.000000 0.000000 110 110 101
-2.062086 7.839468 0.157724 -1.000000 0.000000 -0.000000 110 110 101
-2.062086 2.700270 0.138655 -1.000000 0.000000 -0.000000 110 110 101
-2.062086 7.838588 0.394317 -1.000000 0.000000 -0.000000 110 110 101
-2.062086 2.699390 0.375243 -1.000000 0.000000 0.000000 110 110 101
-2.062086 2.700270 0.138655 -0.000000 -0.999993 -0.003722 110 110 101
2.959011 2.700270 0.138655 -0.000000 -0.999993 -0.003722 110 110 101
-2.062086 2.699390 0.375243 -0.000000 -0.999993 -0.003722 110 110 101
2.959011 2.699390 0.375243 0.000000 -0.999993 -0.003722 110 110 101
2.959011 2.700270 0.138655 1.000000 0.000000 0.000000 110 110 101
2.959011 7.839468 0.157724 1.000000 0.000000 0.000000 110 110 101
2.959011 2.699390 0.375243 1.000000 0.000000 0.000000 110 110 101
2.959011 7.838588 0.394317 1.000000 0.000000 0.000000 110 110 101
3.195599 7.839468 0.157724 -1.000000 0.000000 -0.000000 161 161 156
3.195599 2.700270 0.138655 -1.000000 0.000000 -0.000000 110 110 101
3.195599 7.838588 0.394317 -1.000000 0.000000 -0.000000 198 198 194
3.195599 7.838588 0.394317 -1.000000 0.000000 0.000000 119 119 111
3.195599 2.699390 0.375243 -1.000000 0.000000 0.000000 110 110 101
3.195599 2.700270 0.138655 -0.000000 -0.999993 -0.003722 110 110 101
8.334831 2.700270 0.138655 -0.000000 -0.999993 -0.003722 110 110 101
3.195599 2.699390 0.375243 -0.000000 -0.999993 -0.003722 110 110 101
8.334831 2.699390 0.375243 0.000000 -0.999993 -0.003722 110 110 101
8.334831 2.463681 0.137775 -0.000000 0.999993 0.003722 110 110 101
3.195599 2.463681 0.137775 -0.000000 0.999993 0.003722 110 110 101
8.334831 2.462801 0.374363 -0.000000 0.999993 0.003722 110 110 101
3.195599 2.462801 0.374363 0.000000 0.999993 0.003722 110 110 101
3.195599 2.463681 0.137775 -1.000000 0.000000 -0.000000 110 110 101
3.195599 -2.557382 0.119138 -1.000000 0.000000 -0.000000 110 110 101
3.195599 2.462801 0.374363 -1.000000 0.000000 -0.000000 110 110 101
3.195599 -2.558257 0.355732 -1.000000 0.000000 0.000000 110 110 101
3.195599 -2.557382 0.119138 -0.000000 -0.999993 -0.003700 110 110 101
8.334831 -2.557382 0.119138 -0.000000 -0.999993 -0.003700 110 110 101
3.195599 -2.558257 0.355732 -0.000000 -0.999993 -0.003700 110 110 101
8.334831 -2.558257 0.355732 0.000000 -0.999993 -0.003700 110 110 101
8.334831 -2.793970 0.118264 -0.000000 0.999993 0.003721 110 110 101
3.195599 -2.793970 0.118264 -0.000000 0.999993 0.003721 110 110 101
8.334831 -2.794850 0.354851 -0.000000 0.999993 0.003721 110 110 101
3.195599 -2.794850 0.354851 0.000000 0.999993 0.003721 110 110 101
3.195599 -2.793970 0.118264 -1.000000 0.000000 -0.000000 110 110 101
3.195599 -7.933168 0.099189 -1.000000 0.000000 -0.000000 110 110 101
3.195599 -2.794850 0.354851 -1.000000 0.000000 -0.000000 110 110 101
3.195599 -7.934043 0.335777 -1.000000 0.000000 0.000000 110 110 101
2.959011 -7.933168 0.099189 1.000000 0.000000 0.000000 110 110 101
2.959011 -2.793970 0.118264 1.000000 0.000000 0.000000 110 110 101
2.959011 -7.934043 0.335777 1.000000 0.000000 0.000000 110 110 101
2.959011 -2.794850 0.354851 1.000000 0.000000 0.000000 110 110 101
2.959011 -2.793970 0.118264 -0.000000 0.999993 0.003721 110 110 101
-2.062086 -2.793970 0.118264 -0.000000 0.999993 0.003721 110 110 101
2.959011 -2.794850 0.354851 -0.000000 0.999993 0.003721 110 110 101
-2.062086 -2.794850 0.354851 0.000000 0.999993 0.003721 110 110 101
-2.062086 -2.793970 0.118264 -1.000000 0.000000 -0.000000 110 110 101
-2.062086 -7.933168 0.099189 -1.000000 0.000000 -0.000000 110 110 101
-2.062086 -2.794850 0.354851 -1.000000 0.000000 -0.000000 110 110 101
-2.062086 -7.934043 0.335777 -1.000000 0.000000 0.000000 110 110 101
-2.298675 -7.933168 0.099189 1.000000 0.000000 0.000000 110 110 101
-2.298675 -2.793970 0.118264 1.000000 0.000000 0.000000 110 110 101
-2.298675 -7.934043 0.335777 1.000000 0.000000 0.000000 110 110 101
-2.298675 -2.794850 0.354851 1.000000 0.000000 0.000000 110 110 101
2.959011 -2.557382 0.119138 1.000000 0.000000 0.000000 110 110 101
2.959011 2.463681 0.137775 1.000000 0.000000 0.000000 110 110 101
2.959011 -2.558257 0.355732 1.000000 0.000000 0.000000 110 110 101
2.959011 2.462801 0.374363 1.000000 0.000000 0.000000 110 110 101
2.959011 2.463681 0.137775 -0.000000 0.999993 0.003722 110 110 101
-2.062086 2.463681 0.137775 -0.000000 0.999993 0.003722 110 110 101
2.959011 2.462801 0.374363 -0.000000 0.999993 0.003722 110 110 101
-2.062086 2.462801 0.374363 0.000000 0.999993 0.003722 110 110 101
-2.062086 2.463681 0.137775 -1.000000 0.000000 -0.000000 110 110 101
-2.062086 -2.557382 0.119138 -1.000000 0.000000 -0.000000 110 110 101
-2.062086 2.462801 0.374363 -1.000000 0.000000 -0.000000 110 110 101
-2.062086 -2.558257 0.355732 -1.000000 0.000000 0.000000 110 110 101
-2.062086 -2.557382 0.119138 -0.000000 -0.999993 -0.003700 110 110 101
2.959011 -2.557382 0.119138 -0.000000 -0.999993 -0.003700 110 110 101
-2.062086 -2.558257 0.355732 -0.000000 -0.999993 -0.003700 110 110 101
2.959011 -2.558257 0.355732 0.000000 -0.999993 -0.003700 110 110 101
-2.298675 -2.793970 0.118264 -0.000000 0.999993 0.003721 110 110 101
-7.437907 -2.793970 0.118264 -0.000000 0.999993 0.003721 110 110 101
-2.298675 -2.794850 0.354851 -0.000000 0.999993 0.003721 110 110 101
-7.437907 -2.794850 0.354851 0.000000 0.999993 0.003721 110 110 101
2.959011 -2.793970 0.118264 0.000000 -0.003711 0.999993 110 110 101
2.959011 -7.933168 0.099189 0.000000 -0.003711 0.999993 110 110 101
3.195599 -7.933168 0.099189 0.000000 -0.003711 0.999993 110 110 101
3.195599 -2.793970 0.118264 0.000000 -0.003711 0.999993 110 110 101
2.959011 -2.793970 0.118264 0.000000 -0.003697 0.999993 110 110 101
3.195599 -2.793970 0.118264 0.000000 -0.003697 0.999993 110 110 101
2.959011 -2.557382 0.119138 0.000000 -0.003697 0.999993 110 110 101
-2.062086 -2.793970 0.118264 0.000000 -0.003697 0.999993 110 110 101
-2.298675 -2.793970 0.118264 0.000000 -0.003697 0.999993 110 110 101
-2.062086 -2.793970 0.118264 0.000000 -0.003711 0.999993 110 110 101
-2.298675 -2.793970 0.118264 0.000000 -0.003711 0.999993 110 110 101
-2.062086 -7.933168 0.099189 0.000000 -0.003711 0.999993 110 110 101
-2.298675 -7.933168 0.099189 0.000000 -0.003711 0.999993 110 110 101
-2.298675 2.463681 0.137775 0.000000 -0.003712 0.999993 110 110 101
-2.298675 -2.557382 0.119138 0.000000 -0.003712 0.999993 110 110 101
-2.062086 2.463681 0.137775 0.000000 -0.003712 0.999993 110 110 101
-2.062086 -2.557382 0.119138 0.000000 -0.003712 0.999993 110 110 101
-7.437907 -2.557382 0.119138 0.000000 -0.003697 0.999993 110 110 101
-7.437907 -2.793970 0.118264 0.000000 -0.003697 0.999993 110 110 101
-2.298675 -2.557382 0.119138 0.000000 -0.003697 0.999993 110 110 101
-2.062086 -2.557382 0.119138 0.000000 -0.003697 0.999993 110 110 101
8.334831 -2.557382 0.119138 0.000000 -0.003697 0.999993 110 110 101
3.195599 -2.557382 0.119138 0.000000 -0.003697 0.999993 110 110 101
8.334831 -2.793970 0.118264 0.000000 -0.003697 0.999993 110 110 101
-2.062086 7.839468 0.157724 0.000000 -0.003710 0.999993 110 110 101
-2.298675 7.839468 0.157724 0.000000 -0.003710 0.999993 110 110 101
-2.062086 2.700270 0.138655 0.000000 -0.003710 0.999993 110 110 101
-2.298675 2.700270 0.138655 0.000000 -0.003710 0.999993 110 110 101
2.959011 -2.557382 0.119138 0.000000 -0.003712 0.999993 110 110 101
3.195599 -2.557382 0.119138 0.000000 -0.003712 0.999993 110 110 101
3.195599 2.463681 0.137775 0.000000 -0.003712 0.999993 110 110 101
2.959011 2.463681 0.137775 0.000000 -0.003712 0.999993 110 110 101
8.334831 2.463681 0.137775 0.000000 -0.003721 0.999993 110 110 101
8.334831 2.700270 0.138655 0.000000 -0.003721 0.999993 110 110 101
3.195599 2.463681 0.137775 0.000000 -0.003721 0.999993 110 110 101
3.195599 2.700270 0.138655 0.000000 -0.003721 0.999993 110 110 101
2.959011 2.463681 0.137775 0.000000 -0.003721 0.999993 110 110 101
3.195599 7.839468 0.157724 0.000000 -0.003710 0.999993 110 110 101
2.959011 7.839468 0.157724 0.000000 -0.003710 0.999993 110 110 101
3.195599 2.700270 0.138655 0.000000 -0.003710 0.999993 110 110 101
2.959011 2.700270 0.138655 0.000000 -0.003710 0.999993 110 110 101
2.959011 2.700270 0.138655 0.000000 -0.003721 0.999993 110 110 101
-2.062086 2.700270 0.138655 0.000000 -0.003721 0.999993 110 110 101
-2.062086 2.463681 0.137775 0.000000 -0.003721 0.999993 110 110 101
-2.298675 2.700270 0.138655 0.000000 -0.003721 0.999993 110 110 101
-2.298675 2.463681 0.137775 0.000000 -0.003721 0.999993 110 110 101
-7.437907 2.700270 0.138655 0.000000 -0.003721 0.999993 110 110 101
-7.437907 2.463681 0.137775 0.000000 -0.003721 0.999993 110 110 101
-2.062086 2.462801 0.374363 0.000000 -0.003711 0.999993 110 110 101
-2.062086 -2.558257 0.355732 0.000000 -0.003711 0.999993 110 110 101
2.959011 2.462801 0.374363 0.000000 -0.003711 0.999993 110 110 101
2.959011 -2.558257 0.355732 0.000000 -0.003711 0.999993 110 110 101
3 0 1 2
3 2 1 3
3 2 3 4
3 5 6 7
3 7 6 8
3 7 8 9
3 10 11 9
3 9 11 4
3 9 4 7
3 7 4 3
3 12 13 14
3 15 16 17
3 18 19 20
3 21 22 23
3 24 25 26
3 27 28 29
3 30 31 32
3 32 31 33
3 29 20 34
3 34 20 19
3 35 36 37
3 37 36 38
3 39 40 41
3 41 40 42
3 43 44 45
3 45 44 46
3 45 47 38
3 38 46 41
3 38 41 37
3 37 48 42
3 49 50 51
3 51 50 52
3 53 54 55
3 55 54 56
3 57 58 59
3 59 58 60
3 61 62 63
3 63 62 64
3 65 66 67
3 67 66 68
3 69 70 71
3 71 70 72
3 73 74 75
3 75 74 76
3 77 78 79
3 80 81 82
3 83 84 85
3 86 87 88
3 89 90 91
3 92 93 94
3 95 96 97
3 97 96 98
3 94 85 99
3 99 85 100
3 101 102 103
3 103 102 104
3 105 106 107
3 107 106 108
3 109 110 111
3 111 110 112
3 113 114 115
3 115 114 116
3 117 118 119
3 119 118 120
3 121 122 123
3 123 122 124
3 125 126 127
3 127 126 128
3 129 130 131
3 131 130 132
3 133 134 135
3 135 134 136
3 137 138 139
3 139 138 140
3 141 142 143
3 144 142 145
3 146 147 148
3 148 147 149
3 150 151 152
3 152 151 153
3 154 155 156
3 156 155 157
3 158 159 160
3 160 159 161
3 162 163 164
3 164 163 165
3 166 167 168
3 168 167 169
3 170 171 172
3 172 171 173
3 174 175 176
3 176 175 177
3 178 179 180
3 180 179 181
3 182 183 184
3 184 183 185
3 186 187 188
3 188 187 189
3 190 191 192
3 192 191 193
3 194 195 196
3 196 195 197
3 198 199 200
3 200 199 201
3 202 203 204
3 204 203 205
3 206 207 208
3 208 209 206
3 210 211 212
3 210 212 213
3 213 212 214
3 215 216 217
3 217 216 218
3 219 220 221
3 221 220 222
3 223 224 225
3 225 224 214
3 225 214 226
3 226 214 212
3 227 228 229
3 229 228 211
3 230 231 232
3 232 231 233
3 211 228 212
3 234 235 236
3 234 236 237
3 238 239 240
3 240 239 241
3 240 241 242
3 243 244 245
3 245 244 246
3 241 247 242
3 242 247 248
3 242 248 249
3 249 248 250
3 249 250 251
3 251 250 252
3 251 252 253
3 254 255 256
3 256 255 257
