ply
format ascii 1.0
comment Created by Blender 2.78 (sub 0) - www.blender.org, source file: ''
element vertex 679
property float x
property float y
property float z
property float nx
property float ny
property float nz
property uchar red
property uchar green
property uchar blue
element face 248
property list uchar uint vertex_indices
end_header
-0.234426 -2.621502 0.564282 0.025750 -0.999667 -0.001604 0 0 0
-0.367472 -2.624929 0.564275 0.025750 -0.999667 -0.001604 0 0 0
-0.367472 -2.624011 -0.008273 0.025750 -0.999667 -0.001604 0 0 0
-0.367472 -2.624011 -0.008273 -0.025750 -0.999667 -0.001604 0 0 0
-0.367472 -2.624929 0.564275 -0.025750 -0.999667 -0.001604 0 0 0
-0.500526 -2.620584 -0.008265 -0.025750 -0.999667 -0.001604 0 0 0
-0.367472 -2.624929 0.564275 -0.025748 -0.999667 -0.001604 0 0 0
-0.500526 -2.621502 0.564282 -0.025748 -0.999667 -0.001604 0 0 0
-0.500526 -2.620584 -0.008265 -0.025748 -0.999667 -0.001604 0 0 0
-0.500526 -2.620584 -0.008265 -0.102810 -0.994700 -0.001596 0 0 0
-0.500526 -2.621502 0.564282 -0.102810 -0.994700 -0.001596 0 0 0
-0.765214 -2.594145 0.564319 -0.102810 -0.994700 -0.001596 0 0 0
-0.500526 -2.620584 -0.008265 -0.102809 -0.994700 -0.001596 0 0 0
-0.765214 -2.594145 0.564319 -0.102809 -0.994700 -0.001596 0 0 0
-0.765214 -2.593226 -0.008221 -0.102809 -0.994700 -0.001596 0 0 0
-0.765214 -2.593226 -0.008221 -0.204548 -0.978855 -0.001570 0 0 0
-0.765214 -2.594145 0.564319 -0.204548 -0.978855 -0.001570 0 0 0
-1.025691 -2.539714 0.564409 -0.204548 -0.978855 -0.001570 0 0 0
-1.025691 -2.538795 -0.008139 -0.204548 -0.978855 -0.001570 0 0 0
-1.025691 -2.538795 -0.008139 -0.304131 -0.952629 -0.001528 0 0 0
-1.025691 -2.539714 0.564409 -0.304131 -0.952629 -0.001528 0 0 0
-1.279186 -2.458784 0.564536 -0.304131 -0.952629 -0.001528 0 0 0
-1.279186 -2.457866 -0.008004 -0.304131 -0.952629 -0.001528 0 0 0
-1.279186 -2.457866 -0.008004 -0.400456 -0.916315 -0.001469 0 0 0
-1.279186 -2.458784 0.564536 -0.400456 -0.916315 -0.001469 0 0 0
-1.523021 -2.352222 0.564708 -0.400456 -0.916315 -0.001469 0 0 0
-1.279186 -2.457866 -0.008004 -0.400433 -0.916325 -0.001458 0 0 0
-1.523021 -2.352222 0.564708 -0.400433 -0.916325 -0.001458 0 0 0
-1.523021 -2.351311 -0.007840 -0.400433 -0.916325 -0.001458 0 0 0
-1.523021 -2.351311 -0.007840 -0.492551 -0.870283 -0.001385 0 0 0
-1.523021 -2.352222 0.564708 -0.492551 -0.870283 -0.001385 0 0 0
-1.754602 -2.221155 0.564917 -0.492551 -0.870283 -0.001385 0 0 0
-1.523021 -2.351311 -0.007840 -0.492572 -0.870270 -0.001396 0 0 0
-1.754602 -2.221155 0.564917 -0.492572 -0.870270 -0.001396 0 0 0
-1.754602 -2.220237 -0.007631 -0.492572 -0.870270 -0.001396 0 0 0
-1.754602 -2.220237 -0.007631 -0.579419 -0.815029 -0.001308 0 0 0
-1.754602 -2.221155 0.564917 -0.579419 -0.815029 -0.001308 0 0 0
-1.971482 -2.066972 0.565163 -0.579419 -0.815029 -0.001308 0 0 0
-1.971482 -2.066053 -0.007377 -0.579419 -0.815029 -0.001308 0 0 0
-1.971482 -2.066053 -0.007377 -0.660145 -0.751137 -0.001205 0 0 0
-1.971482 -2.066972 0.565163 -0.660145 -0.751137 -0.001205 0 0 0
-2.171361 -1.891307 0.565447 -0.660145 -0.751137 -0.001205 0 0 0
-1.971482 -2.066053 -0.007377 -0.660144 -0.751138 -0.001205 0 0 0
-2.171361 -1.891307 0.565447 -0.660144 -0.751138 -0.001205 0 0 0
-2.171361 -1.890388 -0.007101 -0.660144 -0.751138 -0.001205 0 0 0
-2.171361 -1.890388 -0.007101 -0.733881 -0.679277 -0.001090 0 0 0
-2.171361 -1.891307 0.565447 -0.733881 -0.679277 -0.001090 0 0 0
-2.352118 -1.696020 0.565761 -0.733881 -0.679277 -0.001090 0 0 0
-2.352118 -1.695101 -0.006787 -0.733881 -0.679277 -0.001090 0 0 0
-2.352118 -1.695101 -0.006787 -0.799845 -0.600205 -0.000963 0 0 0
-2.352118 -1.696020 0.565761 -0.799845 -0.600205 -0.000963 0 0 0
-2.511834 -1.483179 0.566104 -0.799845 -0.600205 -0.000963 0 0 0
-2.511834 -1.482261 -0.006444 -0.799845 -0.600205 -0.000963 0 0 0
-2.511834 -1.482261 -0.006444 -0.857313 -0.514796 -0.000826 0 0 0
-2.511834 -1.483179 0.566104 -0.857313 -0.514796 -0.000826 0 0 0
-2.648822 -1.255047 0.566462 -0.857313 -0.514796 -0.000826 0 0 0
-2.648822 -1.254129 -0.006078 -0.857313 -0.514796 -0.000826 0 0 0
-2.648822 -1.254129 -0.006078 -0.905699 -0.423920 -0.000680 0 0 0
-2.648822 -1.255047 0.566462 -0.905699 -0.423920 -0.000680 0 0 0
-2.761626 -1.014043 0.566851 -0.905699 -0.423920 -0.000680 0 0 0
-2.761626 -1.013124 -0.005697 -0.905699 -0.423920 -0.000680 0 0 0
-2.761626 -1.013124 -0.005697 -0.944490 -0.328540 -0.000527 0 0 0
-2.761626 -1.014043 0.566851 -0.944490 -0.328540 -0.000527 0 0 0
-2.849052 -0.762712 0.567254 -0.944490 -0.328540 -0.000527 0 0 0
-2.849052 -0.761794 -0.005294 -0.944490 -0.328540 -0.000527 0 0 0
-2.849052 -0.761794 -0.005294 -0.973265 -0.229686 -0.000368 0 0 0
-2.849052 -0.762712 0.567254 -0.973265 -0.229686 -0.000368 0 0 0
-2.910173 -0.503721 0.567672 -0.973265 -0.229686 -0.000368 0 0 0
-2.849052 -0.761794 -0.005294 -0.973263 -0.229693 -0.000365 0 0 0
-2.910173 -0.503721 0.567672 -0.973263 -0.229693 -0.000365 0 0 0
-2.910173 -0.502810 -0.004876 -0.973263 -0.229693 -0.000365 0 0 0
-2.910173 -0.502810 -0.004876 -0.991723 -0.128398 -0.000204 0 0 0
-2.910173 -0.503721 0.567672 -0.991723 -0.128398 -0.000204 0 0 0
-2.944340 -0.239825 0.568090 -0.991723 -0.128398 -0.000204 0 0 0
-2.910173 -0.502810 -0.004876 -0.991723 -0.128395 -0.000206 0 0 0
-2.944340 -0.239825 0.568090 -0.991723 -0.128395 -0.000206 0 0 0
-2.944340 -0.238906 -0.004458 -0.991723 -0.128395 -0.000206 0 0 0
-2.944340 -0.238906 -0.004458 -0.999669 -0.025731 -0.000041 0 0 0
-2.944340 -0.239825 0.568090 -0.999669 -0.025731 -0.000041 0 0 0
-2.951186 0.026185 0.568516 -0.999669 -0.025731 -0.000041 0 0 0
-2.951186 0.027103 -0.004032 -0.999669 -0.025731 -0.000041 0 0 0
-2.951186 0.027103 -0.004032 -0.997019 0.077162 0.000124 0 0 0
-2.951186 0.026185 0.568516 -0.997019 0.077162 0.000124 0 0 0
-2.930654 0.291493 0.568941 -0.997019 0.077162 0.000124 0 0 0
-2.930654 0.292411 -0.003606 -0.997019 0.077162 0.000124 0 0 0
-2.930654 0.292411 -0.003606 -0.983800 0.179267 0.000288 0 0 0
-2.930654 0.291493 0.568941 -0.983800 0.179267 0.000288 0 0 0
-2.882950 0.553284 0.569359 -0.983800 0.179267 0.000288 0 0 0
-2.882950 0.554202 -0.003188 -0.983800 0.179267 0.000288 0 0 0
-2.882950 0.554202 -0.003188 -0.960147 0.279495 0.000448 0 0 0
-2.882950 0.553284 0.569359 -0.960147 0.279495 0.000448 0 0 0
-2.808576 0.808781 0.569770 -0.960147 0.279495 0.000448 0 0 0
-2.808576 0.809699 -0.002778 -0.960147 0.279495 0.000448 0 0 0
-2.808576 0.809699 -0.002778 -0.926325 0.376725 0.000604 0 0 0
-2.808576 0.808781 0.569770 -0.926325 0.376725 0.000604 0 0 0
-2.708330 1.055273 0.570166 -0.926325 0.376725 0.000604 0 0 0
-2.808576 0.809699 -0.002778 -0.926325 0.376724 0.000604 0 0 0
-2.708330 1.055273 0.570166 -0.926325 0.376724 0.000604 0 0 0
-2.708330 1.056191 -0.002382 -0.926325 0.376724 0.000604 0 0 0
-2.708330 1.056191 -0.002382 -0.882674 0.469985 0.000754 0 0 0
-2.708330 1.055273 0.570166 -0.882674 0.469985 0.000754 0 0 0
-2.583266 1.290155 0.570539 -0.882674 0.469985 0.000754 0 0 0
-2.583266 1.291073 -0.002008 -0.882674 0.469985 0.000754 0 0 0
-2.583266 1.291073 -0.002008 -0.829682 0.558235 0.000895 0 0 0
-2.583266 1.290155 0.570539 -0.829682 0.558235 0.000895 0 0 0
-2.434720 1.510932 0.570890 -0.829682 0.558235 0.000895 0 0 0
-2.434720 1.511851 -0.001650 -0.829682 0.558235 0.000895 0 0 0
-2.434720 1.511851 -0.001650 -0.767874 0.640600 0.001028 0 0 0
-2.434720 1.510932 0.570890 -0.767874 0.640600 0.001028 0 0 0
-2.264252 1.715268 0.571219 -0.767874 0.640600 0.001028 0 0 0
-2.434720 1.511851 -0.001650 -0.767874 0.640600 0.001027 0 0 0
-2.264252 1.715268 0.571219 -0.767874 0.640600 0.001027 0 0 0
-2.264252 1.716187 -0.001329 -0.767874 0.640600 0.001027 0 0 0
-2.264252 1.716187 -0.001329 -0.697943 0.716152 0.001149 0 0 0
-2.264252 1.715268 0.571219 -0.697943 0.716152 0.001149 0 0 0
-2.073684 1.900990 0.571517 -0.697943 0.716152 0.001149 0 0 0
-2.264252 1.716187 -0.001329 -0.697944 0.716152 0.001149 0 0 0
-2.073684 1.900990 0.571517 -0.697944 0.716152 0.001149 0 0 0
-2.073684 1.901909 -0.001030 -0.697944 0.716152 0.001149 0 0 0
-2.073684 1.901909 -0.001030 -0.620615 0.784114 0.001258 0 0 0
-2.073684 1.900990 0.571517 -0.620615 0.784114 0.001258 0 0 0
-1.865032 2.066135 0.571779 -0.620615 0.784114 0.001258 0 0 0
-1.865032 2.067054 -0.000762 -0.620615 0.784114 0.001258 0 0 0
-1.865032 2.067054 -0.000762 -0.536702 0.843771 0.001354 0 0 0
-1.865032 2.066135 0.571779 -0.536702 0.843771 0.001354 0 0 0
-1.640499 2.208955 0.572010 -0.536702 0.843771 0.001354 0 0 0
-1.865032 2.067054 -0.000762 -0.536681 0.843784 0.001342 0 0 0
-1.640499 2.208955 0.572010 -0.536681 0.843784 0.001342 0 0 0
-1.640499 2.209866 -0.000538 -0.536681 0.843784 0.001342 0 0 0
-1.640499 2.209866 -0.000538 -0.447090 0.894488 0.001423 0 0 0
-1.640499 2.208955 0.572010 -0.447090 0.894488 0.001423 0 0 0
-1.402474 2.327926 0.572204 -0.447090 0.894488 0.001423 0 0 0
-1.640499 2.209866 -0.000538 -0.447091 0.894487 0.001423 0 0 0
-1.402474 2.327926 0.572204 -0.447091 0.894487 0.001423 0 0 0
-1.402474 2.328837 -0.000343 -0.447091 0.894487 0.001423 0 0 0
-1.402474 2.328837 -0.000343 -0.352735 0.935722 0.001489 0 0 0
-1.402474 2.327926 0.572204 -0.352735 0.935722 0.001489 0 0 0
-1.153480 2.421788 0.572353 -0.352735 0.935722 0.001489 0 0 0
-1.402474 2.328837 -0.000343 -0.352759 0.935713 0.001501 0 0 0
-1.153480 2.421788 0.572353 -0.352759 0.935713 0.001501 0 0 0
-1.153480 2.422706 -0.000194 -0.352759 0.935713 0.001501 0 0 0
-1.153480 2.422706 -0.000194 -0.254690 0.967021 0.001551 0 0 0
-1.153480 2.421788 0.572353 -0.254690 0.967021 0.001551 0 0 0
-0.896154 2.489561 0.572458 -0.254690 0.967021 0.001551 0 0 0
-1.153480 2.422706 -0.000194 -0.254665 0.967028 0.001539 0 0 0
-0.896154 2.489561 0.572458 -0.254665 0.967028 0.001539 0 0 0
-0.896154 2.490472 -0.000090 -0.254665 0.967028 0.001539 0 0 0
-0.896154 2.490472 -0.000090 -0.153875 0.988089 0.001572 0 0 0
-0.896154 2.489561 0.572458 -0.153875 0.988089 0.001572 0 0 0
-0.633221 2.530508 0.572525 -0.153875 0.988089 0.001572 0 0 0
-0.896154 2.490472 -0.000090 -0.153902 0.988085 0.001585 0 0 0
-0.633221 2.530508 0.572525 -0.153902 0.988085 0.001585 0 0 0
-0.633221 2.531426 -0.000022 -0.153902 0.988085 0.001585 0 0 0
-0.633221 2.531426 -0.000022 -0.051488 0.998672 0.001602 0 0 0
-0.633221 2.530508 0.572525 -0.051488 0.998672 0.001602 8 8 8
-0.367472 2.544209 0.572548 -0.051488 0.998672 0.001602 8 8 8
-0.367472 2.545127 0.000000 -0.051488 0.998672 0.001602 0 0 0
-0.367472 2.545127 0.000000 0.051488 0.998672 0.001602 0 0 0
-0.367472 2.544209 0.572548 0.051488 0.998672 0.001602 8 8 8
-0.101724 2.530508 0.572525 0.051488 0.998672 0.001602 7 7 7
-0.101724 2.531426 -0.000022 0.051488 0.998672 0.001602 0 0 0
-0.101724 2.531426 -0.000022 0.153879 0.988088 0.001585 0 0 0
-0.101724 2.530508 0.572525 0.153879 0.988088 0.001585 7 7 7
0.161202 2.489561 0.572458 0.153879 0.988088 0.001585 7 7 7
-0.101724 2.531426 -0.000022 0.153906 0.988084 0.001572 0 0 0
0.161202 2.489561 0.572458 0.153906 0.988084 0.001572 7 7 7
0.161202 2.490472 -0.000090 0.153906 0.988084 0.001572 0 0 0
0.161202 2.490472 -0.000090 0.254683 0.967023 0.001539 0 0 0
0.161202 2.489561 0.572458 0.254683 0.967023 0.001539 7 7 7
0.418536 2.421788 0.572353 0.254683 0.967023 0.001539 6 6 6
0.161202 2.490472 -0.000090 0.254658 0.967030 0.001551 0 0 0
0.418536 2.421788 0.572353 0.254658 0.967030 0.001551 6 6 6
0.418536 2.422706 -0.000194 0.254658 0.967030 0.001551 0 0 0
0.418536 2.422706 -0.000194 0.352735 0.935722 0.001501 0 0 0
0.418536 2.421788 0.572353 0.352735 0.935722 0.001501 6 6 6
0.667529 2.327926 0.572204 0.352735 0.935722 0.001501 6 6 6
0.418536 2.422706 -0.000194 0.352759 0.935713 0.001489 0 0 0
0.667529 2.327926 0.572204 0.352759 0.935713 0.001489 6 6 6
0.667529 2.328837 -0.000343 0.352759 0.935713 0.001489 0 0 0
0.667529 2.328837 -0.000343 0.447090 0.894488 0.001423 0 0 0
0.667529 2.327926 0.572204 0.447090 0.894488 0.001423 6 6 6
0.905554 2.208955 0.572010 0.447090 0.894488 0.001423 5 5 5
0.667529 2.328837 -0.000343 0.447091 0.894487 0.001423 0 0 0
0.905554 2.208955 0.572010 0.447091 0.894487 0.001423 5 5 5
0.905554 2.209866 -0.000538 0.447091 0.894487 0.001423 0 0 0
0.905554 2.209866 -0.000538 0.536715 0.843762 0.001342 0 0 0
0.905554 2.208955 0.572010 0.536715 0.843762 0.001342 0 0 0
1.130080 2.066135 0.571779 0.536715 0.843762 0.001342 0 0 0
0.905554 2.209866 -0.000538 0.536694 0.843776 0.001354 0 0 0
1.130080 2.066135 0.571779 0.536694 0.843776 0.001354 5 5 5
1.130080 2.067054 -0.000762 0.536694 0.843776 0.001354 0 0 0
1.130080 2.067054 -0.000762 0.620601 0.784125 0.001258 0 0 0
1.130080 2.066135 0.571779 0.620601 0.784125 0.001258 5 5 5
1.338739 1.900990 0.571517 0.620601 0.784125 0.001258 4 4 4
1.338739 1.901909 -0.001030 0.620601 0.784125 0.001258 0 0 0
1.338739 1.901909 -0.001030 0.697943 0.716152 0.001149 0 0 0
1.338739 1.900990 0.571517 0.697943 0.716152 0.001149 0 0 0
1.529307 1.715268 0.571219 0.697943 0.716152 0.001149 0 0 0
1.338739 1.901909 -0.001030 0.697944 0.716152 0.001149 0 0 0
1.529307 1.715268 0.571219 0.697944 0.716152 0.001149 0 0 0
1.529307 1.716187 -0.001329 0.697944 0.716152 0.001149 0 0 0
1.529307 1.716187 -0.001329 0.767888 0.640583 0.001027 0 0 0
1.529307 1.715268 0.571219 0.767888 0.640583 0.001027 0 0 0
1.699768 1.510932 0.570890 0.767888 0.640583 0.001027 0 0 0
1.529307 1.716187 -0.001329 0.767888 0.640583 0.001028 0 0 0
1.699768 1.510932 0.570890 0.767888 0.640583 0.001028 0 0 0
1.699768 1.511851 -0.001650 0.767888 0.640583 0.001028 0 0 0
1.699768 1.511851 -0.001650 0.829682 0.558236 0.000895 0 0 0
1.699768 1.510932 0.570890 0.829682 0.558236 0.000895 0 0 0
1.848314 1.290155 0.570539 0.829682 0.558236 0.000895 0 0 0
1.848314 1.291073 -0.002008 0.829682 0.558236 0.000895 0 0 0
1.848314 1.291073 -0.002008 0.882675 0.469984 0.000754 0 0 0
1.848314 1.290155 0.570539 0.882675 0.469984 0.000754 0 0 0
1.973379 1.055273 0.570166 0.882675 0.469984 0.000754 0 0 0
1.848314 1.291073 -0.002008 0.882674 0.469984 0.000754 0 0 0
1.973379 1.055273 0.570166 0.882674 0.469984 0.000754 0 0 0
1.973379 1.056191 -0.002382 0.882674 0.469984 0.000754 0 0 0
1.973379 1.056191 -0.002382 0.926325 0.376725 0.000604 0 0 0
1.973379 1.055273 0.570166 0.926325 0.376725 0.000604 0 0 0
2.073624 0.808781 0.569770 0.926325 0.376725 0.000604 0 0 0
1.973379 1.056191 -0.002382 0.926325 0.376724 0.000604 0 0 0
2.073624 0.808781 0.569770 0.926325 0.376724 0.000604 0 0 0
2.073624 0.809699 -0.002778 0.926325 0.376724 0.000604 0 0 0
2.073624 0.809699 -0.002778 0.960148 0.279493 0.000448 0 0 0
2.073624 0.808781 0.569770 0.960148 0.279493 0.000448 0 0 0
2.147998 0.553284 0.569359 0.960148 0.279493 0.000448 0 0 0
2.147998 0.554202 -0.003188 0.960148 0.279493 0.000448 0 0 0
2.147998 0.554202 -0.003188 0.983800 0.179268 0.000288 0 0 0
2.147998 0.553284 0.569359 0.983800 0.179268 0.000288 0 0 0
2.195702 0.291493 0.568941 0.983800 0.179268 0.000288 0 0 0
2.195702 0.292411 -0.003606 0.983800 0.179268 0.000288 0 0 0
2.195702 0.292411 -0.003606 0.997016 0.077190 0.000124 0 0 0
2.195702 0.291493 0.568941 0.997016 0.077190 0.000124 15 15 15
2.216242 0.026185 0.568516 0.997016 0.077190 0.000124 27 27 27
2.216242 0.026185 0.568516 0.997016 0.077190 0.000124 0 0 0
2.216242 0.027103 -0.004032 0.997016 0.077190 0.000124 0 0 0
2.216242 0.027103 -0.004032 0.999668 -0.025758 -0.000041 1 1 1
2.216242 0.026185 0.568516 0.999668 -0.025758 -0.000041 27 27 27
2.209388 -0.239825 0.568090 0.999668 -0.025758 -0.000041 38 38 38
2.209388 -0.238906 -0.004458 0.999668 -0.025758 -0.000041 1 1 1
2.209388 -0.238906 -0.004458 0.991723 -0.128398 -0.000206 1 1 1
2.209388 -0.239825 0.568090 0.991723 -0.128398 -0.000206 38 38 38
2.175221 -0.503721 0.567672 0.991723 -0.128398 -0.000206 48 48 48
2.209388 -0.238906 -0.004458 0.991723 -0.128395 -0.000204 1 1 1
2.175221 -0.503721 0.567672 0.991723 -0.128395 -0.000204 48 48 48
2.175221 -0.502810 -0.004876 0.991723 -0.128395 -0.000204 2 2 2
2.175221 -0.502810 -0.004876 0.973265 -0.229686 -0.000365 2 2 2
2.175221 -0.503721 0.567672 0.973265 -0.229686 -0.000365 48 48 48
2.114100 -0.762712 0.567254 0.973265 -0.229686 -0.000365 54 54 54
2.175221 -0.502810 -0.004876 0.973263 -0.229693 -0.000368 2 2 2
2.114100 -0.762712 0.567254 0.973263 -0.229693 -0.000368 54 54 54
2.114100 -0.761794 -0.005294 0.973263 -0.229693 -0.000368 2 2 2
2.114100 -0.761794 -0.005294 0.944490 -0.328541 -0.000527 2 2 2
2.114100 -0.762712 0.567254 0.944490 -0.328541 -0.000527 54 54 54
2.026675 -1.014043 0.566851 0.944490 -0.328541 -0.000527 57 57 57
2.026675 -1.013124 -0.005697 0.944490 -0.328541 -0.000527 3 3 3
2.026675 -1.013124 -0.005697 0.905700 -0.423919 -0.000680 0 0 0
2.026675 -1.014043 0.566851 0.905700 -0.423919 -0.000680 0 0 0
1.913870 -1.255047 0.566462 0.905700 -0.423919 -0.000680 0 0 0
1.913870 -1.254129 -0.006078 0.905700 -0.423919 -0.000680 0 0 0
1.913870 -1.254129 -0.006078 0.857312 -0.514796 -0.000826 0 0 0
1.913870 -1.255047 0.566462 0.857312 -0.514796 -0.000826 0 0 0
1.776882 -1.483179 0.566104 0.857312 -0.514796 -0.000826 0 0 0
1.776882 -1.482261 -0.006444 0.857312 -0.514796 -0.000826 0 0 0
1.776882 -1.482261 -0.006444 0.799846 -0.600205 -0.000963 0 0 0
1.776882 -1.483179 0.566104 0.799846 -0.600205 -0.000963 0 0 0
1.617166 -1.696020 0.565761 0.799846 -0.600205 -0.000963 0 0 0
1.617166 -1.695101 -0.006787 0.799846 -0.600205 -0.000963 0 0 0
1.617166 -1.695101 -0.006787 0.733881 -0.679277 -0.001090 0 0 0
1.617166 -1.696020 0.565761 0.733881 -0.679277 -0.001090 0 0 0
1.436409 -1.891307 0.565447 0.733881 -0.679277 -0.001090 0 0 0
1.436409 -1.890388 -0.007101 0.733881 -0.679277 -0.001090 0 0 0
1.436409 -1.890388 -0.007101 0.660159 -0.751125 -0.001205 0 0 0
1.436409 -1.891307 0.565447 0.660159 -0.751125 -0.001205 0 0 0
1.236538 -2.066972 0.565163 0.660159 -0.751125 -0.001205 0 0 0
1.436409 -1.890388 -0.007101 0.660158 -0.751125 -0.001205 0 0 0
1.236538 -2.066972 0.565163 0.660158 -0.751125 -0.001205 0 0 0
1.236538 -2.066053 -0.007377 0.660158 -0.751125 -0.001205 0 0 0
1.236538 -2.066053 -0.007377 0.579419 -0.815029 -0.001308 0 0 0
1.236538 -2.066972 0.565163 0.579419 -0.815029 -0.001308 0 0 0
1.019658 -2.221155 0.564917 0.579419 -0.815029 -0.001308 0 0 0
1.019658 -2.220237 -0.007631 0.579419 -0.815029 -0.001308 0 0 0
1.019658 -2.220237 -0.007631 0.492539 -0.870289 -0.001396 0 0 0
1.019658 -2.221155 0.564917 0.492539 -0.870289 -0.001396 0 0 0
0.788069 -2.352222 0.564708 0.492539 -0.870289 -0.001396 0 0 0
1.019658 -2.220237 -0.007631 0.492560 -0.870277 -0.001385 0 0 0
0.788069 -2.352222 0.564708 0.492560 -0.870277 -0.001385 0 0 0
0.788069 -2.351311 -0.007840 0.492560 -0.870277 -0.001385 0 0 0
0.788069 -2.351311 -0.007840 0.400466 -0.916311 -0.001458 0 0 0
0.788069 -2.352222 0.564708 0.400466 -0.916311 -0.001458 0 0 0
0.544242 -2.458784 0.564536 0.400466 -0.916311 -0.001458 0 0 0
0.788069 -2.351311 -0.007840 0.400443 -0.916320 -0.001469 0 0 0
0.544242 -2.458784 0.564536 0.400443 -0.916320 -0.001469 0 0 0
0.544242 -2.457866 -0.008004 0.400443 -0.916320 -0.001469 0 0 0
0.544242 -2.457866 -0.008004 0.304123 -0.952631 -0.001528 0 0 0
0.544242 -2.458784 0.564536 0.304123 -0.952631 -0.001528 0 0 0
0.290739 -2.539714 0.564409 0.304123 -0.952631 -0.001528 0 0 0
0.544242 -2.457866 -0.008004 0.304122 -0.952632 -0.001528 0 0 0
0.290739 -2.539714 0.564409 0.304122 -0.952632 -0.001528 0 0 0
0.290739 -2.538795 -0.008139 0.304122 -0.952632 -0.001528 0 0 0
0.290739 -2.538795 -0.008139 0.204554 -0.978854 -0.001570 0 0 0
0.290739 -2.539714 0.564409 0.204554 -0.978854 -0.001570 0 0 0
0.030269 -2.594145 0.564319 0.204554 -0.978854 -0.001570 0 0 0
0.030269 -2.593226 -0.008221 0.204554 -0.978854 -0.001570 0 0 0
0.030269 -2.593226 -0.008221 0.102807 -0.994700 -0.001596 0 0 0
0.030269 -2.594145 0.564319 0.102807 -0.994700 -0.001596 0 0 0
-0.234426 -2.621502 0.564282 0.102807 -0.994700 -0.001596 0 0 0
0.030269 -2.593226 -0.008221 0.102806 -0.994700 -0.001596 0 0 0
-0.234426 -2.621502 0.564282 0.102806 -0.994700 -0.001596 0 0 0
-0.234426 -2.620584 -0.008265 0.102806 -0.994700 -0.001596 0 0 0
-0.234426 -2.620584 -0.008265 0.025752 -0.999667 -0.001604 0 0 0
-0.234426 -2.621502 0.564282 0.025752 -0.999667 -0.001604 0 0 0
-0.367472 -2.624011 -0.008273 0.025752 -0.999667 -0.001604 0 0 0
-0.367472 -2.624929 0.564275 -0.000015 -0.001600 0.999999 0 0 0
-0.234426 -2.621502 0.564282 -0.000015 -0.001600 0.999999 0 0 0
-0.367472 -0.040364 0.568411 -0.000015 -0.001600 0.999999 0 0 0
-0.367472 -2.624929 0.564275 0.000015 -0.001600 0.999999 0 0 0
-0.367472 -0.040364 0.568411 0.000015 -0.001600 0.999999 0 0 0
-0.500526 -2.621502 0.564282 0.000015 -0.001600 0.999999 0 0 0
-1.279186 -2.458784 0.564536 -0.000010 -0.001599 0.999999 0 0 0
-1.025691 -2.539714 0.564409 -0.000010 -0.001599 0.999999 0 0 0
-0.367472 -0.040364 0.568411 -0.000010 -0.001599 0.999999 0 0 0
-0.367472 -0.040364 0.568411 0.000009 -0.001604 0.999999 0 0 0
-1.025691 -2.539714 0.564409 0.000009 -0.001604 0.999999 0 0 0
-0.765214 -2.594145 0.564319 0.000009 -0.001604 0.999999 0 0 0
-0.367472 -0.040364 0.568411 -0.000024 -0.001598 0.999999 0 0 0
-0.765214 -2.594145 0.564319 -0.000024 -0.001598 0.999999 0 0 0
-0.500526 -2.621502 0.564282 -0.000024 -0.001598 0.999999 0 0 0
-1.971482 -2.066972 0.565163 -0.000002 -0.001601 0.999999 0 0 0
-1.754602 -2.221155 0.564917 -0.000002 -0.001601 0.999999 0 0 0
-0.367472 -0.040364 0.568411 -0.000002 -0.001601 0.999999 0 0 0
-0.367472 -0.040364 0.568411 -0.000003 -0.001600 0.999999 0 0 0
-1.754602 -2.221155 0.564917 -0.000003 -0.001600 0.999999 0 0 0
-1.523021 -2.352222 0.564708 -0.000003 -0.001600 0.999999 0 0 0
-0.367472 -0.040364 0.568411 0.000003 -0.001604 0.999999 0 0 0
-1.523021 -2.352222 0.564708 0.000003 -0.001604 0.999999 0 0 0
-1.279186 -2.458784 0.564536 0.000003 -0.001604 0.999999 0 0 0
-2.511834 -1.483179 0.566104 0.000007 -0.001609 0.999999 0 0 0
-2.352118 -1.696020 0.565761 0.000007 -0.001609 0.999999 0 0 0
-0.367472 -0.040364 0.568411 0.000007 -0.001609 0.999999 0 0 0
-0.367472 -0.040364 0.568411 0.000002 -0.001604 0.999999 0 0 0
-2.352118 -1.696020 0.565761 0.000002 -0.001604 0.999999 0 0 0
-2.171361 -1.891307 0.565447 0.000002 -0.001604 0.999999 0 0 0
-0.367472 -0.040364 0.568411 0.000007 -0.001608 0.999999 0 0 0
-2.171361 -1.891307 0.565447 0.000007 -0.001608 0.999999 0 0 0
-1.971482 -2.066972 0.565163 0.000007 -0.001608 0.999999 0 0 0
-2.849052 -0.762712 0.567254 0.000001 -0.001604 0.999999 0 0 0
-2.761626 -1.014043 0.566851 0.000001 -0.001604 0.999999 0 0 0
-0.367472 -0.040364 0.568411 0.000001 -0.001604 0.999999 0 0 0
-0.367472 -0.040364 0.568411 0.000003 -0.001610 0.999999 0 0 0
-2.761626 -1.014043 0.566851 0.000003 -0.001610 0.999999 0 0 0
-2.648822 -1.255047 0.566462 0.000003 -0.001610 0.999999 0 0 0
-0.367472 -0.040364 0.568411 -0.000014 -0.001579 0.999999 0 0 0
-2.648822 -1.255047 0.566462 -0.000014 -0.001579 0.999999 0 0 0
-2.511834 -1.483179 0.566104 -0.000014 -0.001579 0.999999 0 0 0
-2.951186 0.026185 0.568516 -0.000001 -0.001600 0.999999 0 0 0
-2.944340 -0.239825 0.568090 -0.000001 -0.001600 0.999999 0 0 0
-0.367472 -0.040364 0.568411 -0.000001 -0.001600 0.999999 0 0 0
-0.367472 -0.040364 0.568411 -0.000002 -0.001585 0.999999 0 0 0
-2.944340 -0.239825 0.568090 -0.000002 -0.001585 0.999999 0 0 0
-2.910173 -0.503721 0.567672 -0.000002 -0.001585 0.999999 0 0 0
-0.367472 -0.040364 0.568411 0.000003 -0.001614 0.999999 0 0 0
-2.910173 -0.503721 0.567672 0.000003 -0.001614 0.999999 0 0 0
-2.849052 -0.762712 0.567254 0.000003 -0.001614 0.999999 0 0 0
-2.808576 0.808781 0.569770 -0.000002 -0.001607 0.999999 0 0 0
-2.882950 0.553284 0.569359 -0.000002 -0.001607 0.999999 0 0 0
-0.367472 -0.040364 0.568411 -0.000002 -0.001607 0.999999 0 0 0
-0.367472 -0.040364 0.568411 0.000000 -0.001597 0.999999 0 0 0
-2.882950 0.553284 0.569359 0.000000 -0.001597 0.999999 0 0 0
-2.930654 0.291493 0.568941 0.000000 -0.001597 0.999999 0 0 0
-0.367472 -0.040364 0.568411 -0.000001 -0.001604 0.999999 0 0 0
-2.930654 0.291493 0.568941 -0.000001 -0.001604 0.999999 0 0 0
-2.951186 0.026185 0.568516 -0.000001 -0.001604 0.999999 0 0 0
-2.434720 1.510932 0.570890 0.000004 -0.001592 0.999999 0 0 0
-2.583266 1.290155 0.570539 0.000004 -0.001592 0.999999 0 0 0
-0.367472 -0.040364 0.568411 0.000004 -0.001592 0.999999 0 0 0
-0.367472 -0.040364 0.568411 0.000004 -0.001592 0.999999 0 0 0
-2.583266 1.290155 0.570539 0.000004 -0.001592 0.999999 0 0 0
-2.708330 1.055273 0.570166 0.000004 -0.001592 0.999999 0 0 0
-0.367472 -0.040364 0.568411 -0.000002 -0.001605 0.999999 0 0 0
-2.708330 1.055273 0.570166 -0.000002 -0.001605 0.999999 0 0 0
-2.808576 0.808781 0.569770 -0.000002 -0.001605 0.999999 0 0 0
-1.865032 2.066135 0.571779 0.000008 -0.001593 0.999999 0 0 0
-2.073684 1.900990 0.571517 0.000008 -0.001593 0.999999 0 0 0
-0.367472 -0.040364 0.568411 0.000008 -0.001593 0.999999 0 0 0
-0.367472 -0.040364 0.568411 -0.000004 -0.001604 0.999999 0 0 0
-2.073684 1.900990 0.571517 -0.000004 -0.001604 0.999999 0 0 0
-2.264252 1.715268 0.571219 -0.000004 -0.001604 0.999999 0 0 0
-0.367472 -0.040364 0.568411 -0.000005 -0.001604 0.999999 0 0 0
-2.264252 1.715268 0.571219 -0.000005 -0.001604 0.999999 0 0 0
-2.434720 1.510932 0.570890 -0.000005 -0.001604 0.999999 0 0 0
-1.153480 2.421788 0.572353 0.000004 -0.001600 0.999999 0 0 0
-1.402474 2.327926 0.572204 0.000004 -0.001600 0.999999 0 0 0
-0.367472 -0.040364 0.568411 0.000004 -0.001600 0.999999 0 0 0
-0.367472 -0.040364 0.568411 -0.000013 -0.001607 0.999999 0 0 0
-1.402474 2.327926 0.572204 -0.000013 -0.001607 0.999999 0 0 0
-1.640499 2.208955 0.572010 -0.000013 -0.001607 0.999999 0 0 0
-0.367472 -0.040364 0.568411 -0.000010 -0.001605 0.999999 0 0 0
-1.640499 2.208955 0.572010 -0.000010 -0.001605 0.999999 0 0 0
-1.865032 2.066135 0.571779 -0.000010 -0.001605 0.999999 0 0 0
-0.367472 2.544209 0.572548 -0.000002 -0.001600 0.999999 0 0 0
-0.633221 2.530508 0.572525 -0.000002 -0.001600 0.999999 0 0 0
-0.367472 -0.040364 0.568411 -0.000002 -0.001600 0.999999 0 0 0
-0.367472 -0.040364 0.568411 -0.000006 -0.001601 0.999999 0 0 0
-0.633221 2.530508 0.572525 -0.000006 -0.001601 0.999999 0 0 0
-0.896154 2.489561 0.572458 -0.000006 -0.001601 0.999999 0 0 0
-0.367472 -0.040364 0.568411 0.000014 -0.001597 0.999999 0 0 0
-0.896154 2.489561 0.572458 0.000014 -0.001597 0.999999 0 0 0
-1.153480 2.421788 0.572353 0.000014 -0.001597 0.999999 0 0 0
0.418536 2.421788 0.572353 -0.000014 -0.001597 0.999999 0 0 0
0.161202 2.489561 0.572458 -0.000014 -0.001597 0.999999 0 0 0
-0.367472 -0.040364 0.568411 -0.000014 -0.001597 0.999999 0 0 0
-0.367472 -0.040364 0.568411 0.000006 -0.001601 0.999999 0 0 0
0.161202 2.489561 0.572458 0.000006 -0.001601 0.999999 0 0 0
-0.101724 2.530508 0.572525 0.000006 -0.001601 0.999999 0 0 0
-0.367472 -0.040364 0.568411 0.000002 -0.001600 0.999999 0 0 0
-0.101724 2.530508 0.572525 0.000002 -0.001600 0.999999 0 0 0
-0.367472 2.544209 0.572548 0.000002 -0.001600 0.999999 0 0 0
1.130080 2.066135 0.571779 0.000010 -0.001605 0.999999 0 0 0
0.905554 2.208955 0.572010 0.000010 -0.001605 0.999999 0 0 0
-0.367472 -0.040364 0.568411 0.000010 -0.001605 0.999999 0 0 0
-0.367472 -0.040364 0.568411 0.000013 -0.001607 0.999999 0 0 0
0.905554 2.208955 0.572010 0.000013 -0.001607 0.999999 0 0 0
0.667529 2.327926 0.572204 0.000013 -0.001607 0.999999 0 0 0
-0.367472 -0.040364 0.568411 -0.000004 -0.001600 0.999999 0 0 0
0.667529 2.327926 0.572204 -0.000004 -0.001600 0.999999 0 0 0
0.418536 2.421788 0.572353 -0.000004 -0.001600 0.999999 0 0 0
1.699768 1.510932 0.570890 0.000005 -0.001604 0.999999 0 0 0
1.529307 1.715268 0.571219 0.000005 -0.001604 0.999999 0 0 0
-0.367472 -0.040364 0.568411 0.000005 -0.001604 0.999999 0 0 0
-0.367472 -0.040364 0.568411 0.000004 -0.001604 0.999999 0 0 0
1.529307 1.715268 0.571219 0.000004 -0.001604 0.999999 0 0 0
1.338739 1.900990 0.571517 0.000004 -0.001604 0.999999 0 0 0
-0.367472 -0.040364 0.568411 -0.000008 -0.001593 0.999999 0 0 0
1.338739 1.900990 0.571517 -0.000008 -0.001593 0.999999 0 0 0
1.130080 2.066135 0.571779 -0.000008 -0.001593 0.999999 0 0 0
2.073624 0.808781 0.569770 0.000002 -0.001605 0.999999 0 0 0
1.973379 1.055273 0.570166 0.000002 -0.001605 0.999999 0 0 0
-0.367472 -0.040364 0.568411 0.000002 -0.001605 0.999999 0 0 0
-0.367472 -0.040364 0.568411 -0.000004 -0.001592 0.999999 0 0 0
1.973379 1.055273 0.570166 -0.000004 -0.001592 0.999999 0 0 0
1.848314 1.290155 0.570539 -0.000004 -0.001592 0.999999 0 0 0
-0.367472 -0.040364 0.568411 -0.000004 -0.001592 0.999999 0 0 0
1.848314 1.290155 0.570539 -0.000004 -0.001592 0.999999 0 0 0
1.699768 1.510932 0.570890 -0.000004 -0.001592 0.999999 0 0 0
2.216242 0.026185 0.568516 0.000001 -0.001604 0.999999 0 0 0
2.195702 0.291493 0.568941 0.000001 -0.001604 0.999999 0 0 0
-0.367472 -0.040364 0.568411 0.000001 -0.001604 0.999999 0 0 0
2.195702 0.291493 0.568941 -0.000000 -0.001597 0.999999 0 0 0
2.147998 0.553284 0.569359 -0.000000 -0.001597 0.999999 0 0 0
-0.367472 -0.040364 0.568411 0.000002 -0.001607 0.999999 0 0 0
2.147998 0.553284 0.569359 0.000002 -0.001607 0.999999 0 0 0
2.073624 0.808781 0.569770 0.000002 -0.001607 0.999999 0 0 0
2.114100 -0.762712 0.567254 -0.000003 -0.001614 0.999999 0 0 0
2.175221 -0.503721 0.567672 -0.000003 -0.001614 0.999999 0 0 0
-0.367472 -0.040364 0.568411 -0.000003 -0.001614 0.999999 0 0 0
-0.367472 -0.040364 0.568411 0.000002 -0.001585 0.999999 0 0 0
2.175221 -0.503721 0.567672 0.000002 -0.001585 0.999999 0 0 0
2.209388 -0.239825 0.568090 0.000002 -0.001585 0.999999 0 0 0
-0.367472 -0.040364 0.568411 0.000001 -0.001600 0.999999 0 0 0
2.209388 -0.239825 0.568090 0.000001 -0.001600 0.999999 0 0 0
2.216242 0.026185 0.568516 0.000001 -0.001600 0.999999 0 0 0
1.776882 -1.483179 0.566104 0.000014 -0.001579 0.999999 0 0 0
1.913870 -1.255047 0.566462 0.000014 -0.001579 0.999999 0 0 0
-0.367472 -0.040364 0.568411 0.000014 -0.001579 0.999999 0 0 0
-0.367472 -0.040364 0.568411 -0.000003 -0.001610 0.999999 0 0 0
1.913870 -1.255047 0.566462 -0.000003 -0.001610 0.999999 0 0 0
2.026675 -1.014043 0.566851 -0.000003 -0.001610 0.999999 0 0 0
-0.367472 -0.040364 0.568411 -0.000001 -0.001604 0.999999 0 0 0
2.026675 -1.014043 0.566851 -0.000001 -0.001604 0.999999 0 0 0
2.114100 -0.762712 0.567254 -0.000001 -0.001604 0.999999 0 0 0
1.236538 -2.066972 0.565163 -0.000007 -0.001608 0.999999 0 0 0
1.436409 -1.891307 0.565447 -0.000007 -0.001608 0.999999 0 0 0
-0.367472 -0.040364 0.568411 -0.000007 -0.001608 0.999999 0 0 0
-0.367472 -0.040364 0.568411 -0.000002 -0.001604 0.999999 0 0 0
1.436409 -1.891307 0.565447 -0.000002 -0.001604 0.999999 0 0 0
1.617166 -1.696020 0.565761 -0.000002 -0.001604 0.999999 0 0 0
-0.367472 -0.040364 0.568411 -0.000007 -0.001609 0.999999 0 0 0
1.617166 -1.696020 0.565761 -0.000007 -0.001609 0.999999 0 0 0
1.776882 -1.483179 0.566104 -0.000007 -0.001609 0.999999 0 0 0
0.544242 -2.458784 0.564536 -0.000003 -0.001604 0.999999 0 0 0
0.788069 -2.352222 0.564708 -0.000003 -0.001604 0.999999 0 0 0
-0.367472 -0.040364 0.568411 -0.000003 -0.001604 0.999999 0 0 0
-0.367472 -0.040364 0.568411 0.000003 -0.001600 0.999999 0 0 0
0.788069 -2.352222 0.564708 0.000003 -0.001600 0.999999 0 0 0
1.019658 -2.221155 0.564917 0.000003 -0.001600 0.999999 0 0 0
-0.367472 -0.040364 0.568411 0.000002 -0.001601 0.999999 0 0 0
1.019658 -2.221155 0.564917 0.000002 -0.001601 0.999999 0 0 0
1.236538 -2.066972 0.565163 0.000002 -0.001601 0.999999 0 0 0
-0.234426 -2.621502 0.564282 0.000024 -0.001598 0.999999 0 0 0
0.030269 -2.594145 0.564319 0.000024 -0.001598 0.999999 0 0 0
-0.367472 -0.040364 0.568411 0.000024 -0.001598 0.999999 0 0 0
-0.367472 -0.040364 0.568411 -0.000009 -0.001604 0.999999 0 0 0
0.030269 -2.594145 0.564319 -0.000009 -0.001604 0.999999 0 0 0
0.290739 -2.539714 0.564409 -0.000009 -0.001604 0.999999 0 0 0
-0.367472 -0.040364 0.568411 0.000010 -0.001599 0.999999 0 0 0
0.290739 -2.539714 0.564409 0.000010 -0.001599 0.999999 0 0 0
0.544242 -2.458784 0.564536 0.000010 -0.001599 0.999999 0 0 0
-0.367472 -2.624011 -0.008273 -0.000015 0.001600 -0.999999 0 0 0
-0.500526 -2.620584 -0.008265 -0.000015 0.001600 -0.999999 0 0 0
-0.367472 -0.039446 -0.004136 -0.000015 0.001600 -0.999999 0 0 0
-0.367472 -2.624011 -0.008273 0.000015 0.001600 -0.999999 0 0 0
-0.367472 -0.039446 -0.004136 0.000015 0.001600 -0.999999 0 0 0
-0.234426 -2.620584 -0.008265 0.000015 0.001600 -0.999999 0 0 0
0.544242 -2.457866 -0.008004 0.000018 0.001606 -0.999999 0 0 0
0.290739 -2.538795 -0.008139 0.000018 0.001606 -0.999999 0 0 0
-0.367472 -0.039446 -0.004136 0.000018 0.001606 -0.999999 0 0 0
-0.367472 -0.039446 -0.004136 -0.000018 0.001596 -0.999999 0 0 0
0.290739 -2.538795 -0.008139 -0.000018 0.001596 -0.999999 0 0 0
0.030269 -2.593226 -0.008221 -0.000018 0.001596 -0.999999 0 0 0
-0.367472 -0.039446 -0.004136 0.000004 0.001600 -0.999999 0 0 0
0.030269 -2.593226 -0.008221 0.000004 0.001600 -0.999999 0 0 0
-0.234426 -2.620584 -0.008265 0.000004 0.001600 -0.999999 0 0 0
1.236538 -2.066053 -0.007377 0.000022 0.001616 -0.999999 0 0 0
1.019658 -2.220237 -0.007631 0.000022 0.001616 -0.999999 0 0 0
-0.367472 -0.039446 -0.004136 0.000022 0.001616 -0.999999 0 0 0
-0.367472 -0.039446 -0.004136 -0.000003 0.001600 -0.999999 0 0 0
1.019658 -2.220237 -0.007631 -0.000003 0.001600 -0.999999 0 0 0
0.788069 -2.351311 -0.007840 -0.000003 0.001600 -0.999999 0 0 0
-0.367472 -0.039446 -0.004136 -0.000022 0.001591 -0.999999 0 0 0
0.788069 -2.351311 -0.007840 -0.000022 0.001591 -0.999999 0 0 0
0.544242 -2.457866 -0.008004 -0.000022 0.001591 -0.999999 0 0 0
1.776882 -1.482261 -0.006444 0.000007 0.001609 -0.999999 0 0 0
1.617166 -1.695101 -0.006787 0.000007 0.001609 -0.999999 0 0 0
-0.367472 -0.039446 -0.004136 0.000007 0.001609 -0.999999 0 0 0
-0.367472 -0.039446 -0.004136 0.000002 0.001604 -0.999999 0 0 0
1.617166 -1.695101 -0.006787 0.000002 0.001604 -0.999999 0 0 0
1.436409 -1.890388 -0.007101 0.000002 0.001604 -0.999999 0 0 0
-0.367472 -0.039446 -0.004136 -0.000014 0.001588 -0.999999 0 0 0
1.436409 -1.890388 -0.007101 -0.000014 0.001588 -0.999999 0 0 0
1.236538 -2.066053 -0.007377 -0.000014 0.001588 -0.999999 0 0 0
2.114100 -0.761794 -0.005294 0.000001 0.001604 -0.999999 0 0 0
2.026675 -1.013124 -0.005697 0.000001 0.001604 -0.999999 0 0 0
-0.367472 -0.039446 -0.004136 0.000001 0.001604 -0.999999 0 0 0
-0.367472 -0.039446 -0.004136 -0.000008 0.001584 -0.999999 0 0 0
2.026675 -1.013124 -0.005697 -0.000008 0.001584 -0.999999 0 0 0
1.913870 -1.254129 -0.006078 -0.000008 0.001584 -0.999999 0 0 0
-0.367472 -0.039446 -0.004136 0.000002 0.001602 -0.999999 0 0 0
1.913870 -1.254129 -0.006078 0.000002 0.001602 -0.999999 0 0 0
1.776882 -1.482261 -0.006444 0.000002 0.001602 -0.999999 0 0 0
2.216242 0.027103 -0.004032 -0.000001 0.001600 -0.999999 0 0 0
2.209388 -0.238906 -0.004458 -0.000001 0.001600 -0.999999 0 0 0
-0.367472 -0.039446 -0.004136 -0.000001 0.001600 -0.999999 0 0 0
-0.367472 -0.039446 -0.004136 -0.000002 0.001585 -0.999999 0 0 0
2.209388 -0.238906 -0.004458 -0.000002 0.001585 -0.999999 0 0 0
2.175221 -0.502810 -0.004876 -0.000002 0.001585 -0.999999 0 0 0
-0.367472 -0.039446 -0.004136 0.000003 0.001614 -0.999999 0 0 0
2.175221 -0.502810 -0.004876 0.000003 0.001614 -0.999999 0 0 0
2.114100 -0.761794 -0.005294 0.000003 0.001614 -0.999999 0 0 0
2.073624 0.809699 -0.002778 -0.000002 0.001607 -0.999999 0 0 0
2.147998 0.554202 -0.003188 -0.000002 0.001607 -0.999999 0 0 0
-0.367472 -0.039446 -0.004136 -0.000002 0.001607 -0.999999 0 0 0
-0.367472 -0.039446 -0.004136 0.000000 0.001597 -0.999999 0 0 0
2.147998 0.554202 -0.003188 0.000000 0.001597 -0.999999 0 0 0
2.195702 0.292411 -0.003606 0.000000 0.001597 -0.999999 0 0 0
-0.367472 -0.039446 -0.004136 -0.000001 0.001604 -0.999999 0 0 0
2.195702 0.292411 -0.003606 -0.000001 0.001604 -0.999999 0 0 0
2.216242 0.027103 -0.004032 -0.000001 0.001604 -0.999999 0 0 0
1.699768 1.511851 -0.001650 -0.000010 0.001616 -0.999999 0 0 0
1.848314 1.291073 -0.002008 -0.000010 0.001616 -0.999999 0 0 0
-0.367472 -0.039446 -0.004136 -0.000010 0.001616 -0.999999 0 0 0
-0.367472 -0.039446 -0.004136 0.000005 0.001592 -0.999999 0 0 0
1.848314 1.291073 -0.002008 0.000005 0.001592 -0.999999 0 0 0
1.973379 1.056191 -0.002382 0.000005 0.001592 -0.999999 0 0 0
-0.367472 -0.039446 -0.004136 -0.000002 0.001605 -0.999999 0 0 0
1.973379 1.056191 -0.002382 -0.000002 0.001605 -0.999999 0 0 0
2.073624 0.809699 -0.002778 -0.000002 0.001605 -0.999999 0 0 0
1.130080 2.067054 -0.000762 -0.000013 0.001611 -0.999999 0 0 0
1.338739 1.901909 -0.001030 -0.000013 0.001611 -0.999999 0 0 0
-0.367472 -0.039446 -0.004136 -0.000013 0.001611 -0.999999 0 0 0
-0.367472 -0.039446 -0.004136 -0.000004 0.001604 -0.999999 0 0 0
1.338739 1.901909 -0.001030 -0.000004 0.001604 -0.999999 0 0 0
1.529307 1.716187 -0.001329 -0.000004 0.001604 -0.999999 0 0 0
-0.367472 -0.039446 -0.004136 0.000015 0.001583 -0.999999 0 0 0
1.529307 1.716187 -0.001329 0.000015 0.001583 -0.999999 0 0 0
1.699768 1.511851 -0.001650 0.000015 0.001583 -0.999999 0 0 0
0.418536 2.422706 -0.000194 0.000003 0.001600 -0.999999 0 0 0
0.667529 2.328837 -0.000343 0.000003 0.001600 -0.999999 0 0 0
-0.367472 -0.039446 -0.004136 0.000003 0.001600 -0.999999 0 0 0
-0.367472 -0.039446 -0.004136 -0.000012 0.001607 -0.999999 0 0 0
0.667529 2.328837 -0.000343 -0.000012 0.001607 -0.999999 0 0 0
0.905554 2.209866 -0.000538 -0.000012 0.001607 -0.999999 0 0 0
-0.367472 -0.039446 -0.004136 0.000015 0.001592 -0.999999 0 0 0
0.905554 2.209866 -0.000538 0.000015 0.001592 -0.999999 0 0 0
1.130080 2.067054 -0.000762 0.000015 0.001592 -0.999999 0 0 0
-0.367472 2.545127 0.000000 -0.000002 0.001600 -0.999999 0 0 0
-0.101724 2.531426 -0.000022 -0.000002 0.001600 -0.999999 0 0 0
-0.367472 -0.039446 -0.004136 -0.000002 0.001600 -0.999999 0 0 0
-0.367472 -0.039446 -0.004136 -0.000006 0.001601 -0.999999 0 0 0
-0.101724 2.531426 -0.000022 -0.000006 0.001601 -0.999999 0 0 0
0.161202 2.490472 -0.000090 -0.000006 0.001601 -0.999999 0 0 0
-0.367472 -0.039446 -0.004136 0.000014 0.001597 -0.999999 0 0 0
0.161202 2.490472 -0.000090 0.000014 0.001597 -0.999999 0 0 0
0.418536 2.422706 -0.000194 0.000014 0.001597 -0.999999 0 0 0
-1.153480 2.422706 -0.000194 -0.000014 0.001597 -0.999999 0 0 0
-0.896154 2.490472 -0.000090 -0.000014 0.001597 -0.999999 0 0 0
-0.367472 -0.039446 -0.004136 -0.000014 0.001597 -0.999999 0 0 0
-0.367472 -0.039446 -0.004136 0.000006 0.001601 -0.999999 0 0 0
-0.896154 2.490472 -0.000090 0.000006 0.001601 -0.999999 0 0 0
-0.633221 2.531426 -0.000022 0.000006 0.001601 -0.999999 0 0 0
-0.367472 -0.039446 -0.004136 0.000002 0.001600 -0.999999 0 0 0
-0.633221 2.531426 -0.000022 0.000002 0.001600 -0.999999 0 0 0
-0.367472 2.545127 0.000000 0.000002 0.001600 -0.999999 0 0 0
-1.865032 2.067054 -0.000762 -0.000015 0.001592 -0.999999 0 0 0
-1.640499 2.209866 -0.000538 -0.000015 0.001592 -0.999999 0 0 0
-0.367472 -0.039446 -0.004136 -0.000015 0.001592 -0.999999 0 0 0
-0.367472 -0.039446 -0.004136 0.000012 0.001607 -0.999999 0 0 0
-1.640499 2.209866 -0.000538 0.000012 0.001607 -0.999999 0 0 0
-1.402474 2.328837 -0.000343 0.000012 0.001607 -0.999999 0 0 0
-1.402474 2.328837 -0.000343 -0.000003 0.001600 -0.999999 0 0 0
-1.153480 2.422706 -0.000194 -0.000003 0.001600 -0.999999 0 0 0
-2.434720 1.511851 -0.001650 -0.000015 0.001583 -0.999999 0 0 0
-2.264252 1.716187 -0.001329 -0.000015 0.001583 -0.999999 0 0 0
-0.367472 -0.039446 -0.004136 -0.000015 0.001583 -0.999999 0 0 0
-0.367472 -0.039446 -0.004136 0.000004 0.001604 -0.999999 0 0 0
-2.264252 1.716187 -0.001329 0.000004 0.001604 -0.999999 0 0 0
-2.073684 1.901909 -0.001030 0.000004 0.001604 -0.999999 0 0 0
-0.367472 -0.039446 -0.004136 0.000013 0.001611 -0.999999 0 0 0
-2.073684 1.901909 -0.001030 0.000013 0.001611 -0.999999 0 0 0
-1.865032 2.067054 -0.000762 0.000013 0.001611 -0.999999 0 0 0
-2.808576 0.809699 -0.002778 0.000002 0.001605 -0.999999 0 0 0
-2.708330 1.056191 -0.002382 0.000002 0.001605 -0.999999 0 0 0
-0.367472 -0.039446 -0.004136 0.000002 0.001605 -0.999999 0 0 0
-0.367472 -0.039446 -0.004136 -0.000005 0.001592 -0.999999 0 0 0
-2.708330 1.056191 -0.002382 -0.000005 0.001592 -0.999999 0 0 0
-2.583266 1.291073 -0.002008 -0.000005 0.001592 -0.999999 0 0 0
-0.367472 -0.039446 -0.004136 0.000010 0.001616 -0.999999 0 0 0
-2.583266 1.291073 -0.002008 0.000010 0.001616 -0.999999 0 0 0
-2.434720 1.511851 -0.001650 0.000010 0.001616 -0.999999 0 0 0
-2.951186 0.027103 -0.004032 0.000001 0.001604 -0.999999 0 0 0
-2.930654 0.292411 -0.003606 0.000001 0.001604 -0.999999 0 0 0
-2.930654 0.292411 -0.003606 -0.000000 0.001597 -0.999999 0 0 0
-2.882950 0.554202 -0.003188 -0.000000 0.001597 -0.999999 0 0 0
-0.367472 -0.039446 -0.004136 0.000002 0.001607 -0.999999 0 0 0
-2.882950 0.554202 -0.003188 0.000002 0.001607 -0.999999 0 0 0
-2.808576 0.809699 -0.002778 0.000002 0.001607 -0.999999 0 0 0
-2.849052 -0.761794 -0.005294 -0.000003 0.001614 -0.999999 0 0 0
-2.910173 -0.502810 -0.004876 -0.000003 0.001614 -0.999999 0 0 0
-0.367472 -0.039446 -0.004136 -0.000003 0.001614 -0.999999 0 0 0
-0.367472 -0.039446 -0.004136 0.000002 0.001585 -0.999999 0 0 0
-2.910173 -0.502810 -0.004876 0.000002 0.001585 -0.999999 0 0 0
-2.944340 -0.238906 -0.004458 0.000002 0.001585 -0.999999 0 0 0
-0.367472 -0.039446 -0.004136 0.000001 0.001600 -0.999999 0 0 0
-2.944340 -0.238906 -0.004458 0.000001 0.001600 -0.999999 0 0 0
-2.951186 0.027103 -0.004032 0.000001 0.001600 -0.999999 0 0 0
-2.511834 -1.482261 -0.006444 -0.000002 0.001602 -0.999999 0 0 0
-2.648822 -1.254129 -0.006078 -0.000002 0.001602 -0.999999 0 0 0
-0.367472 -0.039446 -0.004136 -0.000002 0.001602 -0.999999 0 0 0
-0.367472 -0.039446 -0.004136 0.000008 0.001584 -0.999999 0 0 0
-2.648822 -1.254129 -0.006078 0.000008 0.001584 -0.999999 0 0 0
-2.761626 -1.013124 -0.005697 0.000008 0.001584 -0.999999 0 0 0
-2.761626 -1.013124 -0.005697 -0.000001 0.001604 -0.999999 0 0 0
-2.849052 -0.761794 -0.005294 -0.000001 0.001604 -0.999999 0 0 0
-1.971482 -2.066053 -0.007377 0.000014 0.001588 -0.999999 0 0 0
-2.171361 -1.890388 -0.007101 0.000014 0.001588 -0.999999 0 0 0
-0.367472 -0.039446 -0.004136 0.000014 0.001588 -0.999999 0 0 0
-0.367472 -0.039446 -0.004136 -0.000002 0.001604 -0.999999 0 0 0
-2.171361 -1.890388 -0.007101 -0.000002 0.001604 -0.999999 0 0 0
-2.352118 -1.695101 -0.006787 -0.000002 0.001604 -0.999999 0 0 0
-0.367472 -0.039446 -0.004136 -0.000007 0.001609 -0.999999 0 0 0
-2.352118 -1.695101 -0.006787 -0.000007 0.001609 -0.999999 0 0 0
-2.511834 -1.482261 -0.006444 -0.000007 0.001609 -0.999999 0 0 0
-1.279186 -2.457866 -0.008004 0.000022 0.001591 -0.999999 0 0 0
-1.523021 -2.351311 -0.007840 0.000022 0.001591 -0.999999 0 0 0
-0.367472 -0.039446 -0.004136 0.000022 0.001591 -0.999999 0 0 0
-1.523021 -2.351311 -0.007840 0.000003 0.001600 -0.999999 0 0 0
-1.754602 -2.220237 -0.007631 0.000003 0.001600 -0.999999 0 0 0
-0.367472 -0.039446 -0.004136 -0.000022 0.001616 -0.999999 0 0 0
-1.754602 -2.220237 -0.007631 -0.000022 0.001616 -0.999999 0 0 0
-1.971482 -2.066053 -0.007377 -0.000022 0.001616 -0.999999 0 0 0
-0.500526 -2.620584 -0.008265 -0.000004 0.001600 -0.999999 0 0 0
-0.765214 -2.593226 -0.008221 -0.000004 0.001600 -0.999999 0 0 0
-0.367472 -0.039446 -0.004136 -0.000004 0.001600 -0.999999 0 0 0
-0.367472 -0.039446 -0.004136 0.000018 0.001596 -0.999999 0 0 0
-0.765214 -2.593226 -0.008221 0.000018 0.001596 -0.999999 0 0 0
-1.025691 -2.538795 -0.008139 0.000018 0.001596 -0.999999 0 0 0
-0.367472 -0.039446 -0.004136 -0.000018 0.001606 -0.999999 0 0 0
-1.025691 -2.538795 -0.008139 -0.000018 0.001606 -0.999999 0 0 0
-1.279186 -2.457866 -0.008004 -0.000018 0.001606 -0.999999 0 0 0
3 0 1 2
3 3 4 5
3 6 7 8
3 9 10 11
3 12 13 14
3 15 16 17
3 15 17 18
3 19 20 21
3 19 21 22
3 23 24 25
3 26 27 28
3 29 30 31
3 32 33 34
3 35 36 37
3 35 37 38
3 39 40 41
3 42 43 44
3 45 46 47
3 45 47 48
3 49 50 51
3 49 51 52
3 53 54 55
3 53 55 56
3 57 58 59
3 57 59 60
3 61 62 63
3 61 63 64
3 65 66 67
3 68 69 70
3 71 72 73
3 74 75 76
3 77 78 79
3 77 79 80
3 81 82 83
3 81 83 84
3 85 86 87
3 85 87 88
3 89 90 91
3 89 91 92
3 93 94 95
3 96 97 98
3 99 100 101
3 99 101 102
3 103 104 105
3 103 105 106
3 107 108 109
3 110 111 112
3 113 114 115
3 116 117 118
3 119 120 121
3 119 121 122
3 123 124 125
3 126 127 128
3 129 130 131
3 132 133 134
3 135 136 137
3 138 139 140
3 141 142 143
3 144 145 146
3 147 148 149
3 150 151 152
3 153 154 155
3 153 155 156
3 157 158 159
3 157 159 160
3 161 162 163
3 164 165 166
3 167 168 169
3 170 171 172
3 173 174 175
3 176 177 178
3 179 180 181
3 182 183 184
3 185 186 187
3 188 189 190
3 191 192 193
3 191 193 194
3 195 196 197
3 198 199 200
3 201 202 203
3 204 205 206
3 207 208 209
3 207 209 210
3 211 212 213
3 214 215 216
3 217 218 219
3 220 221 222
3 223 224 225
3 223 225 226
3 227 228 229
3 227 229 230
3 231 232 233
3 231 234 235
3 236 237 238
3 236 238 239
3 240 241 242
3 243 244 245
3 246 247 248
3 249 250 251
3 252 253 254
3 252 254 255
3 256 257 258
3 256 258 259
3 260 261 262
3 260 262 263
3 264 265 266
3 264 266 267
3 268 269 270
3 268 270 271
3 272 273 274
3 275 276 277
3 278 279 280
3 278 280 281
3 282 283 284
3 285 286 287
3 288 289 290
3 291 292 293
3 294 295 296
3 297 298 299
3 300 301 302
3 300 302 303
3 304 305 306
3 307 308 309
3 310 311 312
3 313 314 315
3 316 317 318
3 319 320 321
3 322 323 324
3 325 326 327
3 328 329 330
3 331 332 333
3 334 335 336
3 337 338 339
3 340 341 342
3 343 344 345
3 346 347 348
3 349 350 351
3 352 353 354
3 355 356 357
3 358 359 360
3 361 362 363
3 364 365 366
3 367 368 369
3 370 371 372
3 373 374 375
3 376 377 378
3 379 380 381
3 382 383 384
3 385 386 387
3 388 389 390
3 391 392 393
3 394 395 396
3 397 398 399
3 400 401 402
3 403 404 405
3 406 407 408
3 409 410 411
3 412 413 414
3 415 416 417
3 418 419 420
3 421 422 423
3 424 425 426
3 427 428 429
3 430 431 432
3 433 434 435
3 436 437 438
3 439 440 441
3 442 443 444
3 445 446 447
3 367 448 449
3 450 451 452
3 453 454 455
3 456 457 458
3 459 460 461
3 462 463 464
3 465 466 467
3 468 469 470
3 471 472 473
3 474 475 476
3 477 478 479
3 480 481 482
3 483 484 485
3 486 487 488
3 489 490 491
3 492 493 494
3 495 496 497
3 498 499 500
3 501 502 503
3 504 505 506
3 507 508 509
3 510 511 512
3 513 514 515
3 516 517 518
3 519 520 521
3 522 523 524
3 525 526 527
3 528 529 530
3 531 532 533
3 534 535 536
3 537 538 539
3 540 541 542
3 543 544 545
3 546 547 548
3 549 550 551
3 552 553 554
3 555 556 557
3 558 559 560
3 561 562 563
3 564 565 566
3 567 568 569
3 570 571 572
3 573 574 575
3 576 577 578
3 579 580 581
3 582 583 584
3 585 586 587
3 588 589 590
3 591 592 593
3 594 595 596
3 597 598 599
3 600 601 602
3 603 604 605
3 606 607 608
3 516 609 610
3 611 612 613
3 614 615 616
3 617 618 619
3 620 621 622
3 623 624 625
3 626 627 628
3 629 630 533
3 552 631 632
3 633 634 635
3 636 637 638
3 639 640 641
3 642 643 644
3 645 646 647
3 648 649 650
3 555 651 652
3 653 654 655
3 656 657 658
3 659 660 661
3 662 663 664
3 578 665 666
3 667 668 669
3 670 671 672
3 673 674 675
3 676 677 678
